<svg id="Layer_1" enable-background="new 0 0 256 256" height="512" viewBox="0 0 256 256" width="512" xmlns="http://www.w3.org/2000/svg"><path d="m4 32.094h248v191.812h-248z" fill="#f4efed"/><path d="m4 32.094h35v191.812h-35z" fill="#690589"/><path d="m217 32.094h35v191.812h-35z" fill="#690589"/><path d="m207 32.094h10v191.812h-10z" fill="#d6d1cf"/><path d="m39 32.094h10v191.812h-10z" fill="#fff"/><path d="m13.5 48h16v16h-16z" fill="#f4efed"/><path d="m13.5 96h16v16h-16z" fill="#f4efed"/><path d="m13.5 144h16v16h-16z" fill="#f4efed"/><path d="m13.5 192h16v16h-16z" fill="#f4efed"/><path d="m226.5 48h16v16h-16z" fill="#f4efed"/><path d="m226.5 96h16v16h-16z" fill="#f4efed"/><path d="m226.5 144h16v16h-16z" fill="#f4efed"/><path d="m226.5 192h16v16h-16z" fill="#f4efed"/><path d="m252 225.906h-248c-1.104 0-2-.896-2-2v-191.812c0-1.104.896-2 2-2h248c1.104 0 2 .896 2 2v191.812c0 1.105-.896 2-2 2zm-246-4h244v-187.812h-244z" fill="#690589"/><path d="m49 56.583c-1.104 0-2-.896-2-2v-12c0-1.104.896-2 2-2s2 .896 2 2v12c0 1.105-.896 2-2 2z" fill="#690589"/><path d="m102.59 53.089 15.506-11.351-2.078 19.104 17.584 7.753-17.584 7.754 2.078 19.104-15.506-11.351-15.507 11.351 2.078-19.104-17.584-7.754 17.584-7.753-2.078-19.104z" fill="#ff4397"/><path d="m118.096 97.453c-.417 0-.831-.13-1.181-.386l-14.326-10.487-14.324 10.486c-.639.468-1.495.514-2.181.118-.687-.396-1.074-1.16-.988-1.948l1.919-17.648-16.244-7.163c-.725-.32-1.193-1.038-1.193-1.83s.468-1.51 1.193-1.83l16.244-7.162-1.919-17.648c-.085-.788.302-1.552.988-1.948s1.542-.35 2.181.118l14.325 10.486 14.325-10.486c.64-.468 1.495-.514 2.181-.118s1.074 1.16.988 1.948l-1.919 17.648 16.244 7.162c.726.32 1.193 1.038 1.193 1.83s-.468 1.51-1.193 1.83l-16.245 7.163 1.919 17.648c.085.788-.302 1.552-.988 1.948-.31.18-.655.269-.999.269zm-15.507-15.351c.415 0 .83.129 1.181.386l11.847 8.672-1.587-14.595c-.094-.867.384-1.695 1.181-2.046l13.434-5.923-13.433-5.923c-.798-.352-1.276-1.18-1.182-2.046l1.587-14.595-11.847 8.672c-.703.515-1.659.515-2.362 0l-11.846-8.672 1.587 14.595c.094.867-.384 1.695-1.181 2.046l-13.434 5.923 13.434 5.923c.797.352 1.275 1.18 1.181 2.046l-1.587 14.595 11.846-8.672c.352-.258.766-.386 1.181-.386z" fill="#690589"/><path d="m171.54 142.484 17.868-13.08-2.394 22.014 20.262 8.934-20.262 8.935 2.394 22.014-17.868-13.08-17.868 13.08 2.393-22.014-20.262-8.935 20.262-8.934-2.393-22.014z" fill="#ff4397"/><path d="m127.949 142.655h-30.062c-1.104 0-2-.896-2-2v-29.37c0-1.104.896-2 2-2h37.091c1.104 0 2 .896 2 2v22.341c.001 4.978-4.05 9.029-9.029 9.029zm-28.062-4h28.062c2.773 0 5.029-2.256 5.029-5.029v-20.341h-33.091z" fill="#690589"/><path d="m123.867 135.404c-.512 0-1.024-.195-1.414-.586-5.172-5.171-8.02-12.047-8.02-19.361v-4.172c0-1.104.896-2 2-2s2 .896 2 2v4.172c0 6.245 2.432 12.117 6.848 16.533.781.781.781 2.047 0 2.828-.39.39-.903.586-1.414.586z" fill="#690589"/><path d="m200.11 111.285h-136.396v-20.292c0-4.071 3.3-7.372 7.372-7.372h129.024z" fill="#fcc24c"/><path d="m97.889 179.137h-23.809c-4.169 0-7.421-3.607-6.992-7.753l6.226-60.099h34.773l-6.703 64.7c-.185 1.791-1.694 3.152-3.495 3.152z" fill="#fcc24c"/><path d="m92.88 171.807h-14.535c-2.545 0-4.531-2.202-4.268-4.734l5.688-48.258h21.228l-5.979 51.067c-.113 1.094-1.034 1.925-2.134 1.925z" fill="#f4efed"/><g fill="#690589"><path d="m200.11 113.285h-136.396c-1.104 0-2-.896-2-2v-20.292c0-5.167 4.204-9.372 9.372-9.372h129.024c1.104 0 2 .896 2 2v27.664c0 1.104-.896 2-2 2zm-134.396-4h132.396v-23.664h-127.024c-2.962 0-5.372 2.41-5.372 5.372z"/><path d="m97.889 181.137h-23.809c-2.552 0-4.996-1.087-6.706-2.982-1.709-1.896-2.539-4.439-2.275-6.978l6.226-60.099c.105-1.02.964-1.794 1.989-1.794h34.773c.566 0 1.106.24 1.485.661s.562.982.504 1.545l-6.703 64.7c-.291 2.821-2.649 4.947-5.484 4.947zm-22.771-67.852-6.041 58.305c-.148 1.435.302 2.815 1.268 3.887.966 1.071 2.292 1.661 3.735 1.661h23.809c.779 0 1.426-.584 1.507-1.359l6.474-62.494z"/><path d="m92.88 173.807h-14.534c-1.778 0-3.481-.757-4.672-2.078s-1.769-3.093-1.585-4.861l5.69-48.286c.119-1.007.972-1.766 1.986-1.766h21.229c.571 0 1.115.244 1.494.67.379.427.559.995.492 1.562l-5.979 51.067c-.217 2.093-1.989 3.692-4.121 3.692zm-11.337-52.992-5.479 46.492c-.064.626.141 1.254.581 1.743.44.488 1.044.757 1.702.757h14.533c.075 0 .137-.056.145-.13l5.72-48.861h-17.202z"/><path d="m157.635 99.453h-93.92c-.53 0-1.039-.211-1.414-.586l-7.824-7.824c-.781-.781-.781-2.047 0-2.828.78-.781 2.048-.781 2.828 0l7.239 7.238h93.092c1.104 0 2 .896 2 2s-.897 2-2.001 2z"/><path d="m142.97 113.285c-1.104 0-2-.896-2-2v-6.46c0-5.168 4.204-9.372 9.372-9.372h49.769c1.104 0 2 .896 2 2s-.896 2-2 2h-49.769c-2.962 0-5.372 2.41-5.372 5.372v6.46c0 1.104-.896 2-2 2z"/><path d="m76.451 91.673c-1.104 0-2-.896-2-2v-6.052c0-1.104.896-2 2-2s2 .896 2 2v6.052c0 1.105-.895 2-2 2z"/><path d="m83.283 91.673c-1.104 0-2-.896-2-2v-6.052c0-1.104.896-2 2-2s2 .896 2 2v6.052c0 1.105-.895 2-2 2z"/><path d="m90.115 91.673c-1.104 0-2-.896-2-2v-6.052c0-1.104.896-2 2-2s2 .896 2 2v6.052c0 1.105-.895 2-2 2z"/><path d="m96.947 91.673c-1.104 0-2-.896-2-2v-6.052c0-1.104.896-2 2-2s2 .896 2 2v6.052c0 1.105-.895 2-2 2z"/><path d="m200.11 85.621c-1.104 0-2-.896-2-2v-6.758c0-1.104.896-2 2-2s2 .896 2 2v6.758c0 1.105-.896 2-2 2z"/><path d="m189.408 193.301c-.417 0-.831-.13-1.181-.386l-16.687-12.216-16.688 12.216c-.639.468-1.495.514-2.181.118s-1.074-1.16-.988-1.948l2.236-20.559-18.923-8.343c-.725-.32-1.193-1.038-1.193-1.83s.468-1.51 1.193-1.83l18.923-8.343-2.236-20.559c-.085-.788.302-1.552.988-1.948s1.542-.35 2.181.118l16.688 12.216 16.687-12.216c.64-.468 1.494-.514 2.181-.118s1.074 1.16.988 1.948l-2.236 20.559 18.923 8.343c.725.32 1.193 1.038 1.193 1.83s-.468 1.51-1.193 1.83l-18.923 8.343 2.236 20.559c.085.788-.302 1.552-.988 1.948-.31.179-.656.268-1 .268zm-48.648-32.948 16.112 7.104c.797.352 1.275 1.18 1.181 2.046l-1.904 17.505 14.209-10.401c.704-.515 1.66-.514 2.362 0l14.208 10.401-1.904-17.505c-.094-.867.384-1.695 1.181-2.046l16.112-7.104-16.112-7.104c-.797-.352-1.275-1.18-1.181-2.046l1.904-17.505-14.208 10.401c-.703.515-1.659.515-2.362 0l-14.209-10.401 1.904 17.505c.094.867-.384 1.695-1.181 2.046z"/></g></svg>